<?xml version="1.0" encoding="utf-8"?>
<!-- Uploaded to: SVG Repo, www.svgrepo.com, Generator: SVG Repo Mixer Tools -->
<svg version="1.1" id="Uploaded to svgrepo.com" xmlns="http://www.w3.org/2000/svg" xmlns:xlink="http://www.w3.org/1999/xlink" 
	 width="800px" height="800px" viewBox="0 0 32 32" xml:space="preserve">
<style type="text/css">
	.cubies_twee{fill:#67625D;}
	.cubies_zes{fill:#EDEAE5;}
	.cubies_vijf{fill:#C9C6C0;}
	.cubies_een{fill:#4C4842;}
	.cubies_drie{fill:#837F79;}
	.st0{fill:#F2C99E;}
	.st1{fill:#F9E0BD;}
	.st2{fill:#C9483A;}
	.st3{fill:#D97360;}
	.st4{fill:#65C3AB;}
	.st5{fill:#EDB57E;}
	.st6{fill:#98D3BC;}
	.st7{fill:#E3D4C0;}
	.st8{fill:#FFF2DF;}
	.st9{fill:#CCE2CD;}
	.st10{fill:#BCD269;}
	.st11{fill:#A4C83F;}
	.st12{fill:#EC9B5A;}
	.st13{fill:#2EB39A;}
	.st14{fill:#725A48;}
	.st15{fill:#8E7866;}
	.st16{fill:#E69D8A;}
	.st17{fill:#A5A29C;}
	.st18{fill:#D1DE8B;}
	.st19{fill:#E8E8B5;}
</style>
<g>
	<path class="cubies_twee" d="M32,5H0V3c0-1.657,1.343-3,3-3h26c1.657,0,3,1.343,3,3V5z"/>
	<path class="cubies_drie" d="M30,5H0V3c0-1.657,1.343-3,3-3h24c1.657,0,3,1.343,3,3V5z"/>
	<path class="cubies_een" d="M29,32H3c-1.657,0-3-1.343-3-3V5h32v24C32,30.657,30.657,32,29,32z"/>
	<path class="cubies_twee" d="M27,32H3c-1.657,0-3-1.343-3-3V5h30v24C30,30.657,28.657,32,27,32z"/>
	<path class="cubies_zes" d="M16,5h-4l2-5h4L16,5z M10,0H6L4,5h4L10,0z M26,0h-4l-2,5h4L26,0z"/>
	<path class="cubies_vijf" d="M12,5h4l2,5h-4L12,5z M6,10h4L8,5H4L6,10z M22,10h4l-2-5h-4L22,10z M10.5,16C9.673,16,9,16.673,9,17.5
		v6c0,0.827,0.673,1.5,1.5,1.5s1.5-0.673,1.5-1.5v-1c0-0.276-0.224-0.5-0.5-0.5S11,22.224,11,22.5v1c0,0.276-0.224,0.5-0.5,0.5
		S10,23.776,10,23.5v-6c0-0.276,0.224-0.5,0.5-0.5s0.5,0.224,0.5,0.5v1c0,0.276,0.224,0.5,0.5,0.5s0.5-0.224,0.5-0.5v-1
		C12,16.673,11.327,16,10.5,16z M17.5,16c-0.276,0-0.5,0.224-0.5,0.5v8c0,0.276,0.224,0.5,0.5,0.5s0.5-0.224,0.5-0.5v-8
		C18,16.224,17.776,16,17.5,16z M25.5,16c-0.276,0-0.5,0.224-0.5,0.5v1.882l-1.053-2.105c-0.104-0.208-0.338-0.316-0.562-0.263
		C23.16,16.067,23,16.268,23,16.5v8c0,0.276,0.224,0.5,0.5,0.5s0.5-0.224,0.5-0.5v-5.882l1,2V24.5c0,0.276,0.224,0.5,0.5,0.5
		s0.5-0.224,0.5-0.5v-8C26,16.224,25.776,16,25.5,16z M22,17.5v6c0,0.827-0.673,1.5-1.5,1.5S19,24.327,19,23.5v-6
		c0-0.827,0.673-1.5,1.5-1.5S22,16.673,22,17.5z M21,17.5c0-0.276-0.224-0.5-0.5-0.5S20,17.224,20,17.5v6c0,0.276,0.224,0.5,0.5,0.5
		s0.5-0.224,0.5-0.5V17.5z M8,17.5v7C8,24.776,7.776,25,7.5,25S7,24.776,7,24.5V21H6v3.5C6,24.776,5.776,25,5.5,25S5,24.776,5,24.5
		v-7C5,16.673,5.673,16,6.5,16S8,16.673,8,17.5z M7,20v-2.5C7,17.224,6.776,17,6.5,17S6,17.224,6,17.5V20H7z M15.5,16h-2
		c-0.276,0-0.5,0.224-0.5,0.5s0.224,0.5,0.5,0.5H14v7.5c0,0.276,0.224,0.5,0.5,0.5s0.5-0.224,0.5-0.5V17h0.5
		c0.276,0,0.5-0.224,0.5-0.5S15.776,16,15.5,16z"/>
</g>
</svg>